<?xml version="1.0" encoding="UTF-8"?>
<!-- Generator: Adobe Illustrator 17.1.0, SVG Export Plug-In . SVG Version: 6.00 Build 0)  -->
<!DOCTYPE svg PUBLIC "-//W3C//DTD SVG 1.1//EN" "http://www.w3.org/Graphics/SVG/1.1/DTD/svg11.dtd">
<svg version="1.1" id="Lock_1_" xmlns="http://www.w3.org/2000/svg" xmlns:xlink="http://www.w3.org/1999/xlink" x="0px" y="0px" viewBox="0 0 300 300" enable-background="new 0 0 300 300" xml:space="preserve">
<g id="body">
	<g>
		<path fill-rule="evenodd" clip-rule="evenodd" fill="#FFD617" d="M195.1,132.6h-88.2c-6.1,0-11,4.9-11,11v55.1c0,6.1,4.9,11,11,11    h88.2c6.1,0,11-4.9,11-11v-55.1C206.1,137.6,201.2,132.6,195.1,132.6z"/>
	</g>
</g>
<g id="body_copy">
	<g>
		<path fill-rule="evenodd" clip-rule="evenodd" fill="#EACA32" d="M106.9,132.6c-6.1,0-11,4.9-11,11v55.1c0,6.1,4.9,11,11,11H151    V133h46.9c-0.9-0.2-1.8-0.4-2.8-0.4H106.9z M206,142.1v58.3c0.1-0.5,0.1-1,0.1-1.6v-55.1C206.1,143.1,206.1,142.6,206,142.1z"/>
	</g>
</g>
<g id="_x3F_">
	<g>
		<path fill="#8A7200" d="M146.1,177.9v-2.1c0-1.8,0.4-3.4,1.2-4.8c0.8-1.4,2.2-2.8,4.3-4.3c2-1.4,3.3-2.6,4-3.5c0.6-0.9,1-1.9,1-3    c0-1.2-0.5-2.2-1.4-2.8c-0.9-0.7-2.2-1-3.8-1c-2.9,0-6.1,0.9-9.8,2.8l-3.1-6.3c4.3-2.4,8.8-3.6,13.6-3.6c3.9,0,7.1,0.9,9.4,2.8    c2.3,1.9,3.5,4.4,3.5,7.6c0,2.1-0.5,3.9-1.4,5.5s-2.8,3.3-5.5,5.2c-1.8,1.4-3,2.4-3.5,3.1c-0.5,0.7-0.7,1.6-0.7,2.8v1.7H146.1z     M145.2,187.7c0-1.6,0.4-2.8,1.3-3.6c0.9-0.8,2.1-1.2,3.8-1.2c1.6,0,2.8,0.4,3.7,1.3c0.9,0.8,1.3,2,1.3,3.6c0,1.5-0.4,2.7-1.3,3.6    c-0.9,0.9-2.1,1.3-3.7,1.3c-1.6,0-2.9-0.4-3.7-1.3C145.6,190.5,145.2,189.3,145.2,187.7z"/>
	</g>
</g>
<g id="lock">
	<g>
		<path fill-rule="evenodd" clip-rule="evenodd" fill="#C6C6C6" d="M151,92.2c-22.3,0-40.4,18.1-40.4,40.4h14.7    c0-14.2,11.5-25.7,25.7-25.7c14.2,0,25.7,11.5,25.7,25.7h14.7C191.4,110.3,173.3,92.2,151,92.2z"/>
	</g>
</g>
</svg>